<?xml version="1.0" standalone="no"?>
<!DOCTYPE svg PUBLIC "-//W3C//DTD SVG 20010904//EN"
 "http://www.w3.org/TR/2001/REC-SVG-20010904/DTD/svg10.dtd">
<svg version="1.0" xmlns="http://www.w3.org/2000/svg"
 width="260.000000pt" height="260.000000pt" viewBox="0 0 260.000000 260.000000"
 preserveAspectRatio="xMidYMid meet">
<metadata>
Created by potrace 1.14, written by Peter Selinger 2001-2017
</metadata>
<g transform="translate(0.000000,260.000000) scale(0.100000,-0.100000)"
fill="#000000" stroke="none">
<path d="M580 2030 l-25 -5 0 -277 c0 -153 2 -279 5 -279 3 -1 26 -2 53 -3 36
-1 47 2 48 14 0 8 1 59 1 113 1 53 4 97 7 98 3 1 46 2 94 3 71 1 90 -2 96 -14
4 -8 7 -59 6 -112 -1 -62 3 -98 9 -99 49 -5 96 -5 96 0 3 35 1 553 -1 556 -5
4 -55 8 -84 6 -20 -1 -21 -7 -20 -116 0 -73 -3 -115 -10 -116 -16 -1 -169 -1
-181 0 -8 1 -11 37 -10 115 l1 114 -30 4 c-16 2 -41 1 -55 -2z"/>
<path d="M1282 2030 c-34 -5 -34 -5 -108 -200 -118 -307 -134 -353 -128 -359
3 -3 27 -6 53 -7 49 -1 49 -1 68 45 l19 46 99 0 100 0 21 -45 20 -45 56 0 55
0 -22 60 c-96 253 -188 492 -193 500 -4 6 -22 8 -40 5z m38 -272 c16 -48 30
-89 30 -92 0 -3 -30 -6 -66 -6 -59 0 -65 2 -59 18 3 9 18 52 33 94 15 42 28
76 29 75 1 -2 16 -42 33 -89z"/>
<path d="M1620 2032 c-6 -2 -10 -104 -10 -286 l0 -281 50 -1 50 0 1 40 c0 23
1 112 2 198 0 87 3 155 6 152 3 -3 49 -91 101 -197 l95 -192 65 0 65 0 0 283
0 282 -52 0 -52 0 0 -177 c0 -98 0 -189 0 -202 -1 -22 -166 298 -185 357 -4
12 -13 22 -19 23 -56 3 -108 4 -117 1z"/>
<path d="M665 1127 c-47 -15 -81 -43 -99 -81 -20 -42 -21 -128 -2 -164 20 -38
79 -69 161 -82 39 -7 80 -18 93 -26 29 -19 29 -64 1 -90 -31 -28 -140 -26
-197 4 -23 12 -46 22 -50 22 -5 0 -18 -17 -30 -39 -21 -36 -21 -39 -4 -54 33
-29 98 -49 179 -54 75 -5 87 -3 137 21 43 21 59 36 75 70 38 77 19 169 -43
207 -17 10 -62 25 -101 34 -94 21 -123 35 -130 62 -18 72 96 103 197 54 41
-20 44 -19 71 36 16 30 16 32 -6 45 -62 41 -183 58 -252 35z"/>
<path d="M1070 1130 l-46 -5 2 -210 c1 -117 6 -221 12 -236 33 -82 112 -125
216 -117 75 6 116 28 154 82 l27 39 3 224 c4 243 8 225 -53 225 -59 0 -55 15
-55 -205 0 -221 -3 -236 -57 -255 -54 -18 -116 4 -131 48 -6 15 -10 111 -10
215 -1 103 -4 191 -9 194 -4 4 -28 4 -53 1z"/>
<path d="M1738 1132 l-28 -3 0 -210 c0 -210 0 -210 -25 -234 -29 -30 -40 -31
-85 -7 -34 19 -34 19 -72 -7 -44 -30 -46 -40 -15 -68 46 -42 146 -56 210 -29
43 17 85 68 93 111 3 19 7 127 8 239 l1 204 -30 4 c-16 2 -42 2 -57 0z"/>
<path d="M1968 1132 c-16 -2 -28 -9 -29 -15 -3 -70 -3 -547 1 -548 15 -4 87
-5 96 -2 9 3 12 85 13 286 l1 282 -27 0 c-16 0 -40 -1 -55 -3z"/>
</g>
</svg>
